# xmcd
#
# Track frame offsets:
#	150
#	15144
#	31021
#	40364
#	55792
#	66679
#	80211
#	90480
#	101176
#	115170
#	126670
#	139350
#	150384
#	163404
#	179821
#	193916
#	210226
#	228070
#	241754
#	256582
#	268141
#	282072
#	295565
#	304856
#	319434
#
# Disc length: 4426 seconds
#
# Revision: 1
# Processed by: cddbd v1.5.2PL0 Copyright (c) Steve Scherf et al.
# Submitted via: audiograbber 1.83.01
#
DISCID=6a114819
DTITLE=Einmal um die ganze Welt - CD 3 - Auf in den Süden
DYEAR=2008
DGENRE=Schlager
TTITLE0=Caterina Valente - Steig in das Traumboot der Liebe
TTITLE1=Rudi Schuricke - Florentinische Nächte
TTITLE2=Connie Francis - Barcarole in der Nacht
TTITLE3=René Carol - Mandolinen der Liebe
TTITLE4=Peter Hinnen - Die Rose von Mexiko
TTITLE5=Peter Alexander - Jede Frau in Bogotá
TTITLE6=Fred Bertelmann - Paris, du bist die schönste Stadt der Welt
TTITLE7=Lys Assia - Nuer eine Schwalbe wars
TTITLE8=Jimmy Makulis - Nachts in Rom
TTITLE9=Karell Gott - Ein Lied geht um die Welt
TTITLE10=Heino - Einmal in Tampico
TTITLE11=Peter Hinnen - In Alabama steht ein Haus
TTITLE12=Peter Alexander/Peter Hinnen - Auf der Piazza von Milano
TTITLE13=Fred Bertelmann - Wenn es Nacht wird in Montana
TTITLE14=Rex Gildo - Fiesta Mexicana
TTITLE15=Roberto Blanco - Der Puppenspieler von Mexiko
TTITLE16=Tony Marshall - Auf der Strapße nach Süden
TTITLE17=Die Flippers - Sonnenschein am Strand von San José
TTITLE18=Sven Jenssen - San Fernando
TTITLE19=Heino und Hannelore - O mia bella Napoli
TTITLE20=Peter Alexander - Wenn in Athen die Sonne versinkt
TTITLE21=Bruce Low - Leise rauscht es am Missouri
TTITLE22=Fred Bertelmann - Eine Nacht in Monte Carlo
TTITLE23=Peter Alexander - Es war in Napoli vor vielen, vielen Jahren
TTITLE24=Gerhard Wendland - Arrivederci, Roma
EXTD=Readers Digest - Eine Traumreise mit Schlagern
EXTT0=
EXTT1=
EXTT2=
EXTT3=
EXTT4=
EXTT5=
EXTT6=
EXTT7=
EXTT8=
EXTT9=
EXTT10=
EXTT11=
EXTT12=
EXTT13=
EXTT14=
EXTT15=
EXTT16=
EXTT17=
EXTT18=
EXTT19=
EXTT20=
EXTT21=
EXTT22=
EXTT23=
EXTT24=
PLAYORDER=
